<?xml version="1.0" standalone="no"?>
<!DOCTYPE svg PUBLIC "-//W3C//DTD SVG 20010904//EN"
 "http://www.w3.org/TR/2001/REC-SVG-20010904/DTD/svg10.dtd">
<svg version="1.0" xmlns="http://www.w3.org/2000/svg"
 width="192.000000pt" height="192.000000pt" viewBox="0 0 192.000000 192.000000"
 preserveAspectRatio="xMidYMid meet">
<metadata>
Created by potrace 1.14, written by Peter Selinger 2001-2017
</metadata>
<g transform="translate(0.000000,192.000000) scale(0.100000,-0.100000)"
fill="#000000" stroke="none">
<path d="M264 1809 c-61 -12 -95 -38 -139 -104 -19 -29 -20 -48 -22 -730 -2
-791 -3 -778 68 -839 21 -18 53 -37 72 -43 21 -6 284 -10 738 -9 l704 1 45 25
c28 16 55 43 74 74 l31 49 0 696 c1 383 -2 711 -6 729 -11 53 -57 109 -108
134 l-46 22 -691 1 c-381 0 -705 -2 -720 -6z"/>
</g>
</svg>
